{"glyphs":{"0":{"ha":761,"x_min":35,"x_max":726,"o":"m 35 490 q 59 703 35 611 q 129 859 83 796 q 239 954 175 922 q 382 986 303 986 q 524 954 461 986 q 633 860 588 922 q 702 704 678 797 q 726 490 726 611 q 702 276 726 369 q 633 121 678 183 q 524 26 588 58 q 382 -6 461 -6 q 239 26 303 -6 q 129 122 175 58 q 59 277 83 185 q 35 490 35 369 m 194 492 q 382 151 194 151 q 567 492 567 151 q 382 831 567 831 q 194 492 194 831 z "},"1":{"ha":331,"x_min":4,"x_max":282,"o":"m 122 826 l 4 826 l 94 972 l 282 972 l 282 0 l 122 0 l 122 826 z "},"2":{"ha":710,"x_min":42,"x_max":668,"o":"m 46 650 q 65 783 46 722 q 122 890 83 844 q 217 960 160 935 q 350 986 274 986 q 472 967 415 986 q 568 911 528 947 q 631 824 608 875 q 654 708 654 772 q 614 542 654 621 q 512 392 574 463 q 378 260 450 322 q 244 146 307 199 l 668 146 l 668 0 l 42 0 l 44 157 q 226 308 143 236 q 372 447 310 381 q 468 574 433 513 q 503 696 503 636 q 466 799 503 756 q 356 842 429 842 q 234 788 275 842 q 193 650 193 733 l 46 650 z "},"3":{"ha":699,"x_min":28,"x_max":671,"o":"m 42 650 q 65 785 42 724 q 131 891 89 846 q 231 961 172 936 q 361 986 290 986 q 478 967 424 986 q 572 912 532 947 q 634 828 611 876 q 657 719 657 779 q 649 654 657 686 q 622 593 640 622 q 574 540 604 564 q 500 500 544 517 q 580 459 547 483 q 633 405 613 435 q 662 342 653 375 q 671 274 671 308 q 647 163 671 213 q 581 76 622 113 q 482 20 539 40 q 360 0 425 0 q 225 25 286 0 q 120 95 164 50 q 52 202 76 140 q 28 336 28 264 l 176 336 q 222 199 176 253 q 351 146 268 146 q 472 190 426 146 q 518 297 518 233 q 478 400 518 357 q 368 443 438 443 l 258 443 l 258 553 l 372 553 q 467 590 429 553 q 504 693 504 628 q 467 798 504 754 q 356 842 429 842 q 232 788 274 842 q 190 650 190 733 l 42 650 z "},"4":{"ha":681,"x_min":28,"x_max":632,"o":"m 472 826 l 197 419 l 472 419 l 472 826 m 472 0 l 472 272 l 28 272 l 28 419 l 418 972 l 632 972 l 632 0 l 472 0 z "},"5":{"ha":692,"x_min":28,"x_max":664,"o":"m 28 336 l 175 336 q 219 199 175 253 q 344 146 264 146 q 467 197 424 146 q 511 324 511 249 q 453 452 511 410 q 285 494 394 494 l 58 494 l 142 972 l 622 972 l 622 833 l 267 833 l 231 629 l 342 629 q 497 602 435 629 q 596 531 558 575 q 649 433 633 488 q 664 321 664 378 q 636 177 664 238 q 562 77 608 117 q 456 19 515 38 q 335 0 397 0 q 202 26 260 0 q 106 97 144 51 q 47 203 67 142 q 28 336 28 264 z "},"6":{"ha":783,"x_min":28,"x_max":756,"o":"m 204 453 q 181 354 181 408 q 197 269 181 308 q 242 199 214 229 q 310 153 271 169 q 392 136 349 136 q 474 153 436 136 q 541 199 513 169 q 586 269 569 229 q 603 354 603 308 q 586 438 603 399 q 541 507 569 478 q 474 553 513 536 q 392 571 436 571 q 302 551 343 571 q 232 496 261 531 l 208 450 l 204 453 m 481 972 l 347 717 q 369 719 358 718 q 392 719 381 719 q 533 691 467 719 q 649 613 600 663 q 727 496 699 563 q 756 353 756 429 q 727 211 756 278 q 649 94 699 144 q 533 15 600 44 q 392 -14 467 -14 q 250 15 317 -14 q 134 94 183 44 q 56 211 85 144 q 28 353 28 278 q 72 528 28 447 l 315 972 l 481 972 z "},"7":{"ha":667,"x_min":28,"x_max":653,"o":"m 653 972 l 249 0 l 86 0 l 421 825 l 28 825 l 28 972 l 653 972 z "},"8":{"ha":714,"x_min":21,"x_max":686,"o":"m 181 308 q 194 242 181 274 q 231 188 207 211 q 285 151 254 164 q 354 138 317 138 q 423 151 392 138 q 477 188 454 164 q 513 242 500 211 q 526 308 526 274 q 513 375 526 344 q 477 429 500 406 q 423 466 454 453 q 354 479 392 479 q 285 466 317 479 q 231 429 254 453 q 194 375 207 406 q 181 308 181 344 m 229 710 q 239 663 229 685 q 265 623 249 640 q 305 596 282 606 q 354 586 328 586 q 402 596 379 586 q 442 623 425 606 q 468 663 458 640 q 478 710 478 685 q 468 757 478 735 q 442 796 458 779 q 402 822 425 813 q 354 832 379 832 q 305 822 328 832 q 265 796 282 813 q 239 757 249 779 q 229 710 229 735 m 69 739 q 92 835 69 790 q 153 915 114 881 q 243 968 192 949 q 354 988 294 988 q 465 968 413 988 q 555 915 517 949 q 615 835 593 881 q 638 739 638 790 q 606 624 638 676 q 521 536 574 571 q 641 430 596 497 q 686 279 686 363 q 660 163 686 217 q 590 68 635 108 q 485 4 546 28 q 354 -19 424 -19 q 224 4 285 -19 q 117 68 163 28 q 47 163 72 108 q 21 279 21 217 q 66 430 21 363 q 186 536 111 497 q 101 624 133 571 q 69 739 69 676 z "},"9":{"ha":783,"x_min":28,"x_max":756,"o":"m 579 513 q 603 613 603 557 q 586 698 603 658 q 541 767 569 738 q 474 813 513 796 q 392 831 436 831 q 310 813 349 831 q 242 767 271 796 q 197 698 214 738 q 181 613 181 658 q 197 527 181 567 q 242 458 214 488 q 310 413 271 429 q 392 396 349 396 q 481 415 440 396 q 551 469 522 435 l 575 515 l 579 513 m 304 -7 l 436 249 q 414 247 425 247 q 392 246 403 246 q 250 275 317 246 q 134 354 183 304 q 56 471 85 404 q 28 613 28 538 q 56 756 28 689 q 134 872 85 822 q 250 951 183 922 q 392 979 317 979 q 533 951 467 979 q 649 872 600 922 q 727 756 699 822 q 756 613 756 689 q 711 438 756 518 l 713 438 l 468 -7 l 304 -7 z "},"\u0000":{"ha":0,"x_min":0,"x_max":0,"o":""},"\r":{"ha":347,"x_min":0,"x_max":0,"o":""}," ":{"ha":181,"x_min":0,"x_max":0,"o":""},"!":{"ha":243,"x_min":42,"x_max":201,"o":"m 42 160 l 201 160 l 201 0 l 42 0 l 42 160 m 42 974 l 201 974 l 201 225 l 42 225 l 42 974 z "},"\"":{"ha":431,"x_min":28,"x_max":403,"o":"m 28 972 l 188 972 l 188 654 l 28 654 l 28 972 m 243 972 l 403 972 l 403 654 l 243 654 l 243 972 z "},"#":{"ha":856,"x_min":28,"x_max":828,"o":"m 490 333 l 606 653 l 367 653 l 251 333 l 490 333 m 28 278 l 28 333 l 192 333 l 307 653 l 101 653 l 101 708 l 326 708 l 421 972 l 481 972 l 386 708 l 625 708 l 719 972 l 779 972 l 685 708 l 828 708 l 828 653 l 665 653 l 550 333 l 754 333 l 754 278 l 531 278 l 431 0 l 371 0 l 471 278 l 232 278 l 132 0 l 72 0 l 172 278 l 28 278 z "},"$":{"ha":574,"x_min":21,"x_max":553,"o":"m 519 940 l 519 789 q 474 818 500 806 q 421 838 451 829 q 350 847 390 847 q 248 824 289 847 q 196 763 207 801 q 189 726 189 744 q 214 656 189 686 q 278 599 239 625 q 362 545 317 572 q 447 483 407 518 q 517 399 488 447 q 551 285 546 351 q 552 254 553 269 q 550 224 551 239 q 467 58 539 119 q 278 -11 396 -3 l 278 -68 l 222 -68 l 222 -12 q 135 0 174 -10 q 72 21 97 10 q 21 49 42 33 l 21 213 q 76 171 44 189 q 144 141 104 154 q 233 128 183 128 q 342 154 304 128 q 390 221 379 181 q 397 254 397 238 q 372 333 397 300 q 307 394 346 365 q 222 451 268 424 q 135 514 175 479 q 65 593 94 549 q 31 700 36 638 q 29 728 29 715 q 32 757 29 742 q 113 914 43 853 q 299 982 182 975 l 299 1042 l 354 1042 l 354 983 q 424 974 394 981 q 476 960 454 967 q 519 940 501 951 z "},"%":{"ha":946,"x_min":25,"x_max":921,"o":"m 615 972 l 675 972 l 326 0 l 267 0 l 615 972 m 25 749 q 42 835 25 794 q 90 907 60 876 q 161 955 121 938 q 247 972 201 972 q 334 955 293 972 q 405 907 375 938 q 452 835 435 876 q 469 749 469 794 q 452 660 469 701 q 405 589 435 619 q 334 540 375 558 q 247 522 293 522 q 161 540 201 522 q 90 589 121 558 q 42 660 60 619 q 25 749 25 701 m 129 750 q 163 659 129 694 q 247 624 197 624 q 331 659 297 624 q 365 750 365 694 q 331 836 365 800 q 247 872 297 872 q 163 836 197 872 q 129 750 129 800 m 476 226 q 494 315 476 274 q 542 386 511 356 q 613 434 572 417 q 699 451 653 451 q 785 434 744 451 q 856 386 826 417 q 903 315 886 356 q 921 226 921 274 q 903 138 921 179 q 856 67 886 97 q 785 18 826 36 q 699 0 744 0 q 613 18 653 0 q 542 67 572 36 q 494 138 511 97 q 476 226 476 179 m 581 229 q 615 138 581 174 q 699 101 649 101 q 783 138 749 101 q 817 229 817 174 q 808 276 817 254 q 783 314 799 297 q 745 340 767 331 q 699 350 724 350 q 652 340 674 350 q 615 314 631 331 q 590 276 599 297 q 581 229 581 254 z "},"&":{"ha":699,"x_min":28,"x_max":671,"o":"m 657 650 l 508 650 q 499 724 508 689 q 470 785 490 758 q 419 826 450 811 q 347 842 389 842 q 238 799 275 842 q 201 696 201 756 q 215 634 201 660 q 250 592 229 608 q 297 567 271 575 q 349 558 324 558 l 385 558 l 385 457 l 350 457 q 294 447 324 457 q 239 418 264 438 q 197 370 214 399 q 181 304 181 342 q 220 199 181 243 q 326 147 260 154 q 338 146 333 146 q 350 146 343 146 q 478 199 433 146 q 522 336 522 253 l 671 336 q 649 206 671 265 q 585 101 626 146 q 488 31 544 57 q 361 0 431 4 l 361 -68 l 306 -68 l 306 1 q 197 29 247 7 q 108 88 146 51 q 49 173 71 124 q 28 281 28 222 q 69 415 28 351 q 211 510 111 478 q 132 548 164 525 q 80 599 100 571 q 51 660 60 628 q 42 724 42 692 q 62 825 42 779 q 117 905 82 871 q 201 960 153 939 q 306 985 250 981 l 306 1042 l 361 1042 l 361 985 q 482 954 428 981 q 575 883 536 928 q 635 779 614 839 q 657 650 657 719 z "},"'":{"ha":213,"x_min":28,"x_max":188,"o":"m 28 972 l 188 972 l 188 654 l 28 654 l 28 972 z "},"(":{"ha":192,"x_min":25,"x_max":164,"o":"m 113 0 q 28 481 32 238 q 113 972 25 725 l 164 972 q 85 491 82 735 q 164 0 88 247 l 113 0 z "},")":{"ha":192,"x_min":28,"x_max":167,"o":"m 28 0 q 107 491 104 247 q 28 972 110 735 l 79 972 q 163 481 167 725 q 79 0 160 238 l 28 0 z "},"*":{"ha":611,"x_min":56,"x_max":556,"o":"m 424 519 l 306 708 l 188 519 l 122 519 l 256 733 l 56 778 l 56 835 l 278 786 l 278 972 l 333 972 l 333 785 l 556 835 l 556 778 l 356 733 l 489 519 l 424 519 z "},"+":{"ha":611,"x_min":56,"x_max":556,"o":"m 333 236 l 278 236 l 278 458 l 56 458 l 56 514 l 278 514 l 278 736 l 333 736 l 333 514 l 556 514 l 556 458 l 333 458 l 333 236 z "},",":{"ha":215,"x_min":28,"x_max":188,"o":"m 28 160 l 188 160 l 188 -57 l 28 -131 l 28 160 z "},"-":{"ha":611,"x_min":56,"x_max":556,"o":"m 56 514 l 556 514 l 556 458 l 56 458 l 56 514 z "},".":{"ha":215,"x_min":28,"x_max":188,"o":"m 28 160 l 188 160 l 188 0 l 28 0 l 28 160 z "},"/":{"ha":464,"x_min":28,"x_max":436,"o":"m 376 972 l 436 972 l 88 0 l 28 0 l 376 972 z "},":":{"ha":215,"x_min":28,"x_max":188,"o":"m 28 160 l 188 160 l 188 0 l 28 0 l 28 160 m 28 750 l 188 750 l 188 590 l 28 590 l 28 750 z "},";":{"ha":215,"x_min":28,"x_max":188,"o":"m 28 160 l 188 160 l 188 -57 l 28 -131 l 28 160 m 28 750 l 188 750 l 188 590 l 28 590 l 28 750 z "},"<":{"ha":583,"x_min":56,"x_max":556,"o":"m 56 521 l 556 757 l 556 694 l 122 490 l 556 285 l 556 222 l 56 458 l 56 521 z "},"=":{"ha":611,"x_min":56,"x_max":556,"o":"m 56 594 l 556 594 l 556 539 l 56 539 l 56 594 m 56 428 l 556 428 l 556 372 l 56 372 l 56 428 z "},">":{"ha":583,"x_min":28,"x_max":528,"o":"m 461 490 l 28 694 l 28 757 l 528 521 l 528 458 l 28 222 l 28 285 l 461 490 z "},"?":{"ha":417,"x_min":28,"x_max":414,"o":"m 28 225 q 44 332 28 286 q 87 416 61 378 q 142 485 113 454 q 198 548 172 517 q 240 613 224 579 q 257 689 257 647 q 217 792 257 749 q 93 836 176 836 q 65 835 78 836 q 44 831 53 833 q 28 825 35 828 l 28 965 q 51 974 38 969 q 83 979 64 976 q 129 982 101 982 q 263 958 208 982 q 351 894 318 933 q 399 805 385 854 q 414 706 414 756 q 397 602 414 647 q 356 520 381 557 q 301 451 331 483 q 246 385 271 418 q 204 313 221 351 q 188 225 188 274 l 28 225 m 28 160 l 188 160 l 188 0 l 28 0 l 28 160 z "},"@":{"ha":1028,"x_min":28,"x_max":1000,"o":"m 253 482 q 270 385 253 431 q 319 307 288 340 q 392 255 350 274 q 481 236 433 236 q 571 255 529 236 q 644 307 613 274 q 692 385 675 340 q 710 482 710 431 q 692 576 710 532 q 644 652 675 619 q 571 703 613 685 q 481 722 529 722 q 392 703 433 722 q 319 652 350 685 q 270 576 288 619 q 253 482 253 532 m 710 213 l 710 360 q 617 231 681 281 q 469 181 554 181 q 363 204 413 181 q 276 268 313 228 q 218 363 239 308 q 197 481 197 418 q 218 596 197 542 q 276 690 239 650 q 363 754 313 731 q 469 778 413 778 q 617 728 554 778 q 710 600 681 679 l 710 754 l 765 754 l 765 268 l 893 268 q 940 374 922 318 q 957 486 957 429 q 922 659 957 578 q 828 800 888 740 q 687 894 768 860 q 514 929 606 929 q 341 894 422 929 q 200 800 260 860 q 106 659 140 740 q 71 486 71 578 q 108 309 71 392 q 208 166 144 226 q 356 72 271 106 q 536 43 440 39 l 536 0 l 514 0 q 324 38 413 0 q 170 142 236 76 q 66 297 104 208 q 28 486 28 385 q 66 676 28 588 q 170 830 104 764 q 324 934 236 896 q 514 972 413 972 q 703 934 615 972 q 858 830 792 896 q 962 676 924 764 q 1000 486 1000 588 q 976 340 1000 410 q 911 213 951 271 l 710 213 z "},"A":{"ha":897,"x_min":14,"x_max":883,"o":"m 600 351 l 449 800 l 297 351 l 600 351 m 247 204 l 179 0 l 14 0 l 342 972 l 556 972 l 883 0 l 718 0 l 649 204 l 247 204 z "},"B":{"ha":692,"x_min":56,"x_max":664,"o":"m 215 439 l 215 150 l 343 150 q 462 189 415 150 q 508 293 508 228 q 462 398 508 357 q 340 439 415 439 l 215 439 m 215 565 l 324 565 q 433 603 392 565 q 474 699 474 640 q 433 790 474 757 q 326 824 393 824 l 215 824 l 215 565 m 56 0 l 56 972 l 344 972 q 460 954 407 972 q 550 903 513 936 q 608 825 588 871 q 629 722 629 779 q 597 594 629 650 q 506 506 564 538 q 622 411 579 474 q 664 265 664 349 q 642 157 664 206 q 578 74 619 108 q 481 19 538 39 q 356 0 425 0 l 56 0 z "},"C":{"ha":697,"x_min":28,"x_max":676,"o":"m 28 490 q 65 683 28 593 q 167 841 103 774 q 319 947 232 908 q 503 986 406 986 q 572 981 543 986 q 619 968 600 975 q 657 950 642 960 l 676 797 q 639 815 660 807 q 593 828 619 822 q 532 833 567 833 q 399 806 461 833 q 292 733 338 779 q 220 624 246 686 q 194 490 194 561 q 220 357 194 419 q 291 248 246 294 q 398 174 336 201 q 531 147 460 147 q 593 153 567 147 q 639 165 619 158 q 676 183 660 174 l 657 31 q 619 13 642 21 q 572 0 600 6 q 503 -6 543 -6 q 319 33 406 -6 q 167 140 232 72 q 65 297 103 207 q 28 490 28 388 z "},"D":{"ha":729,"x_min":56,"x_max":701,"o":"m 215 150 q 354 179 293 153 q 458 250 415 206 q 523 355 500 294 q 546 486 546 415 q 523 617 546 557 q 458 722 500 678 q 354 793 415 767 q 215 822 293 819 l 215 150 m 56 0 l 56 972 l 215 972 q 407 934 318 972 q 561 830 496 896 q 664 675 626 764 q 701 486 701 586 q 664 297 701 386 q 561 142 626 208 q 407 38 496 76 q 215 0 318 0 l 56 0 z "},"E":{"ha":621,"x_min":56,"x_max":593,"o":"m 56 0 l 56 972 l 558 972 l 593 825 l 215 825 l 215 565 l 538 565 l 538 418 l 215 418 l 215 147 l 593 147 l 558 0 l 56 0 z "},"F":{"ha":621,"x_min":56,"x_max":593,"o":"m 215 825 l 215 565 l 538 565 l 538 418 l 215 418 l 215 0 l 56 0 l 56 972 l 558 972 l 593 825 l 215 825 z "},"G":{"ha":892,"x_min":28,"x_max":864,"o":"m 28 490 q 67 683 28 593 q 174 841 106 774 q 335 947 243 908 q 536 986 428 986 q 674 968 614 986 q 778 929 735 950 q 864 871 826 903 l 753 747 q 693 793 726 772 q 620 824 663 810 q 524 838 578 838 q 390 810 451 838 q 282 735 328 782 q 210 624 236 688 q 185 492 185 561 q 210 358 185 421 q 283 247 236 294 q 396 172 331 200 q 540 144 461 144 q 624 151 583 144 q 700 169 665 158 l 700 492 l 860 492 l 860 75 q 769 35 818 53 q 669 7 726 19 q 546 -6 613 -6 q 341 33 436 -6 q 176 140 246 72 q 67 297 107 207 q 28 490 28 388 z "},"H":{"ha":771,"x_min":56,"x_max":715,"o":"m 215 417 l 215 0 l 56 0 l 56 972 l 215 972 l 215 564 l 556 564 l 556 972 l 715 972 l 715 0 l 556 0 l 556 417 l 215 417 z "},"I":{"ha":271,"x_min":56,"x_max":215,"o":"m 56 972 l 215 972 l 215 0 l 56 0 l 56 972 z "},"J":{"ha":418,"x_min":28,"x_max":363,"o":"m 363 254 q 110 -1 363 -1 l 28 -1 l 28 147 l 56 147 q 126 155 97 147 q 172 179 154 163 q 196 224 189 196 q 203 294 203 253 l 203 972 l 363 972 l 363 254 z "},"K":{"ha":728,"x_min":56,"x_max":714,"o":"m 528 0 l 215 497 l 215 0 l 56 0 l 56 972 l 215 972 l 215 524 l 514 972 l 700 972 l 381 508 l 714 0 l 528 0 z "},"L":{"ha":621,"x_min":56,"x_max":607,"o":"m 56 0 l 56 972 l 215 972 l 215 147 l 607 147 l 572 0 l 56 0 z "},"M":{"ha":968,"x_min":21,"x_max":947,"o":"m 485 208 l 260 661 l 185 0 l 21 0 l 138 972 l 268 972 l 485 525 l 699 972 l 831 972 l 947 0 l 783 0 l 707 665 l 485 208 z "},"N":{"ha":810,"x_min":56,"x_max":754,"o":"m 754 972 l 754 0 l 671 0 l 215 613 l 215 0 l 56 0 l 56 972 l 138 972 l 594 365 l 594 972 l 754 972 z "},"O":{"ha":1047,"x_min":28,"x_max":1019,"o":"m 28 490 q 67 683 28 593 q 173 841 106 774 q 331 947 240 908 q 524 986 421 986 q 717 947 626 986 q 874 841 807 908 q 981 683 942 774 q 1019 490 1019 593 q 981 297 1019 388 q 874 140 942 207 q 717 33 807 72 q 524 -6 626 -6 q 331 33 421 -6 q 173 140 240 72 q 67 297 106 207 q 28 490 28 388 m 188 492 q 214 359 188 421 q 286 251 240 297 q 393 178 332 204 q 524 151 454 151 q 654 178 593 151 q 761 251 715 204 q 833 359 807 297 q 860 492 860 421 q 833 624 860 563 q 761 732 807 686 q 654 804 715 778 q 524 831 593 831 q 393 804 454 831 q 286 732 332 778 q 214 624 240 686 q 188 492 188 563 z "},"P":{"ha":718,"x_min":56,"x_max":690,"o":"m 215 456 l 342 456 q 420 470 385 456 q 481 510 456 485 q 519 569 506 535 q 533 643 533 603 q 480 775 533 726 q 342 824 426 824 l 215 824 l 215 456 m 56 0 l 56 972 l 357 972 q 492 949 431 972 q 598 881 554 925 q 666 777 642 838 q 690 642 690 717 q 666 506 690 568 q 598 400 642 444 q 492 331 554 356 q 356 306 431 306 l 215 306 l 215 0 l 56 0 z "},"Q":{"ha":1047,"x_min":28,"x_max":1019,"o":"m 188 492 q 214 359 188 421 q 286 251 240 297 q 393 178 332 204 q 524 151 454 151 q 654 178 593 151 q 761 251 715 204 q 833 359 807 297 q 860 492 860 421 q 833 624 860 563 q 761 732 807 686 q 654 804 715 778 q 524 831 593 831 q 393 804 454 831 q 286 732 332 778 q 214 624 240 686 q 188 492 188 563 m 28 490 q 67 683 28 593 q 173 841 106 774 q 331 947 240 908 q 524 986 421 986 q 717 947 626 986 q 874 841 807 908 q 981 683 942 774 q 1019 490 1019 593 q 1001 355 1019 419 q 947 234 982 290 q 865 132 913 178 q 760 54 818 86 l 938 -193 l 735 -193 l 596 0 q 524 -6 564 -6 q 331 33 421 -6 q 173 140 240 72 q 67 297 106 207 q 28 490 28 388 z "},"R":{"ha":697,"x_min":56,"x_max":683,"o":"m 215 539 l 296 539 q 415 582 371 539 q 458 692 458 625 q 414 794 458 758 q 296 831 369 831 l 215 831 l 215 539 m 496 0 l 215 417 l 215 0 l 56 0 l 56 972 l 328 972 q 445 953 392 972 q 537 899 499 933 q 597 815 575 864 q 618 704 618 765 q 554 524 618 597 q 383 435 490 451 l 683 0 l 496 0 z "},"S":{"ha":574,"x_min":21,"x_max":553,"o":"m 519 940 l 519 789 q 474 818 500 806 q 420 838 451 829 q 349 847 389 847 q 233 814 276 847 q 189 726 189 781 q 216 653 189 683 q 283 595 243 622 q 371 540 324 568 q 458 474 418 511 q 526 385 499 436 q 553 260 553 333 q 470 60 553 133 q 243 -12 388 -12 q 147 -3 189 -12 q 78 18 106 7 q 21 49 44 32 l 21 213 q 76 171 44 189 q 144 141 104 154 q 235 128 183 128 q 357 164 317 128 q 397 254 397 200 q 370 335 397 301 q 301 399 343 369 q 213 457 260 428 q 124 522 165 486 q 55 607 82 558 q 28 724 28 656 q 49 828 28 781 q 109 911 69 876 q 205 965 149 946 q 331 983 261 983 q 410 976 375 983 q 469 963 446 969 q 519 940 497 953 z "},"T":{"ha":638,"x_min":21,"x_max":617,"o":"m 21 825 l 49 972 l 589 972 l 617 825 l 399 825 l 399 -1 l 239 -1 l 239 825 l 21 825 z "},"U":{"ha":792,"x_min":56,"x_max":736,"o":"m 56 972 l 217 972 l 217 344 q 263 202 217 253 q 397 151 310 151 q 531 202 485 151 q 576 344 576 253 l 576 972 l 736 972 l 736 322 q 712 190 736 250 q 642 86 688 129 q 535 19 597 43 q 397 -6 472 -6 q 259 19 322 -6 q 151 86 196 43 q 82 190 107 129 q 57 322 57 250 l 56 972 z "},"V":{"ha":813,"x_min":14,"x_max":799,"o":"m 799 972 l 506 0 l 307 0 l 14 972 l 181 972 l 406 185 l 632 972 l 799 972 z "},"W":{"ha":1025,"x_min":7,"x_max":1018,"o":"m 511 503 l 303 0 l 193 0 l 7 972 l 176 972 l 289 332 l 513 844 l 735 332 l 851 972 l 1018 972 l 832 0 l 724 0 l 511 503 z "},"X":{"ha":779,"x_min":14,"x_max":765,"o":"m 765 0 l 586 0 l 390 333 l 194 0 l 14 0 l 300 486 l 14 972 l 194 972 l 390 639 l 586 972 l 765 972 l 479 486 l 765 0 z "},"Y":{"ha":789,"x_min":14,"x_max":775,"o":"m 775 972 l 349 0 l 181 0 l 326 339 l 14 972 l 193 972 l 408 526 l 601 972 l 775 972 z "},"Z":{"ha":707,"x_min":0,"x_max":707,"o":"m 0 0 l 449 825 l 56 825 l 83 972 l 707 972 l 251 147 l 660 147 l 632 0 l 0 0 z "},"[":{"ha":244,"x_min":56,"x_max":217,"o":"m 217 0 l 56 0 l 56 972 l 217 972 l 217 917 l 111 917 l 111 56 l 217 56 l 217 0 z "},"\\":{"ha":464,"x_min":28,"x_max":436,"o":"m 376 0 l 28 972 l 88 972 l 436 0 l 376 0 z "},"]":{"ha":244,"x_min":28,"x_max":189,"o":"m 28 0 l 28 56 l 133 56 l 133 917 l 28 917 l 28 972 l 189 972 l 189 0 l 28 0 z "},"^":{"ha":368,"x_min":28,"x_max":340,"o":"m 215 972 l 340 694 l 279 694 l 185 906 l 89 694 l 28 694 l 153 972 l 215 972 z "},"_":{"ha":746,"x_min":56,"x_max":690,"o":"m 56 0 l 690 0 l 690 -56 l 56 -56 l 56 0 z "},"a":{"ha":667,"x_min":21,"x_max":632,"o":"m 174 249 q 185 189 174 217 q 218 141 197 161 q 267 109 239 121 q 326 97 294 97 q 388 109 360 97 q 435 141 415 121 q 467 189 456 161 q 479 249 479 217 q 436 353 479 311 q 326 396 393 396 q 267 384 294 396 q 218 353 239 372 q 185 306 197 333 q 174 249 174 279 m 21 244 q 41 344 21 297 q 97 425 61 390 q 181 480 132 460 q 288 500 231 500 q 399 475 351 500 q 479 410 447 450 l 479 474 q 433 590 479 547 q 294 632 388 632 q 218 624 253 632 q 158 607 183 617 q 107 582 129 596 l 107 710 q 167 738 133 725 q 240 756 197 747 q 335 764 282 764 q 557 693 482 764 q 632 490 632 622 l 632 0 l 479 0 l 479 85 q 392 13 443 40 q 278 -14 340 -14 q 177 6 224 -14 q 96 62 131 26 q 41 144 61 97 q 21 244 21 190 z "},"b":{"ha":826,"x_min":42,"x_max":806,"o":"m 194 378 q 213 280 194 325 q 262 202 231 235 q 335 151 293 169 q 426 132 378 132 q 517 151 475 132 q 590 202 558 169 q 639 280 621 235 q 657 378 657 325 q 639 472 657 428 q 590 549 621 517 q 517 599 558 581 q 426 618 475 618 q 335 599 378 618 q 262 549 293 581 q 213 472 231 517 q 194 378 194 428 m 194 643 q 305 731 239 699 q 451 764 371 764 q 592 733 528 764 q 704 650 657 703 q 778 527 751 597 q 806 376 806 457 q 776 224 806 296 q 694 100 746 153 q 573 17 642 47 q 425 -14 504 -14 q 276 16 346 -14 q 155 98 207 46 q 72 222 103 150 q 42 376 42 293 l 42 972 l 194 972 l 194 643 z "},"c":{"ha":569,"x_min":21,"x_max":535,"o":"m 21 376 q 51 527 21 457 q 134 650 82 597 q 256 733 186 703 q 403 764 325 764 q 464 758 439 764 q 504 746 489 753 q 535 728 522 738 l 535 574 q 506 596 522 586 q 467 611 490 604 q 413 618 444 618 q 321 599 364 618 q 246 547 278 579 q 196 470 214 514 q 178 378 178 426 q 197 283 178 328 q 248 205 215 239 q 326 151 281 171 q 422 132 371 132 q 471 137 450 132 q 506 149 492 142 q 535 164 522 156 l 535 21 q 504 4 522 11 q 465 -8 489 -3 q 404 -14 440 -14 q 256 17 325 -14 q 134 100 186 47 q 51 224 82 153 q 21 376 21 296 z "},"d":{"ha":818,"x_min":21,"x_max":776,"o":"m 171 378 q 188 281 171 326 q 236 203 206 236 q 308 151 267 169 q 397 132 350 132 q 486 151 444 132 q 558 203 528 169 q 606 281 589 236 q 624 378 624 326 q 606 472 624 428 q 558 548 589 515 q 486 599 528 581 q 397 618 444 618 q 308 599 350 618 q 236 548 267 581 q 188 472 206 515 q 171 378 171 428 m 624 0 l 624 122 q 519 23 582 60 q 372 -14 456 -14 q 233 17 297 -14 q 121 101 168 47 q 47 225 74 154 q 21 376 21 296 q 47 526 21 456 q 121 650 74 597 q 231 733 168 703 q 369 764 294 764 q 517 726 453 764 q 624 625 582 689 l 624 972 l 776 972 l 776 0 l 624 0 z "},"e":{"ha":750,"x_min":21,"x_max":750,"o":"m 589 533 q 569 558 585 542 q 531 589 554 574 q 474 615 507 604 q 404 626 442 626 q 317 608 358 626 q 242 558 275 590 q 190 481 210 526 q 171 379 171 435 q 179 311 171 343 l 589 533 m 21 372 q 51 524 21 453 q 133 649 81 596 q 255 734 185 703 q 406 765 325 765 q 540 740 479 765 q 647 676 601 714 q 718 592 692 638 q 750 504 744 546 l 222 226 q 319 153 261 178 q 439 128 378 128 q 539 144 493 128 q 618 181 585 161 q 689 233 657 204 l 689 86 q 624 36 663 58 q 544 1 592 17 q 433 -15 497 -15 q 278 14 353 -15 q 147 94 204 43 q 56 217 90 146 q 21 372 21 288 z "},"f":{"ha":397,"x_min":21,"x_max":376,"o":"m 375 619 l 242 619 l 242 0 l 89 0 l 89 619 l 21 619 l 21 751 l 89 751 l 89 796 q 103 875 89 842 q 143 930 118 908 q 201 962 168 951 q 268 972 233 972 q 312 969 292 972 q 346 960 332 965 q 376 947 363 954 l 376 844 q 363 853 371 849 q 347 858 356 856 q 324 861 338 861 q 263 834 283 861 q 242 767 242 807 l 242 751 l 375 751 l 375 619 z "},"g":{"ha":757,"x_min":21,"x_max":715,"o":"m 175 421 q 190 344 175 381 q 231 281 204 308 q 292 238 257 254 q 369 222 328 222 q 447 238 411 222 q 508 281 482 254 q 548 344 533 308 q 563 421 563 381 q 548 501 563 464 q 508 565 533 538 q 447 609 482 593 q 369 625 411 625 q 292 609 328 625 q 231 565 257 593 q 190 501 204 538 q 175 421 175 464 m 715 129 q 692 -16 715 51 q 622 -132 668 -83 q 504 -208 575 -181 q 338 -236 433 -236 q 220 -224 269 -236 q 139 -196 171 -211 q 76 -154 101 -178 l 76 -7 q 140 -53 103 -32 q 219 -83 172 -69 q 329 -97 267 -97 q 506 -36 449 -97 q 563 135 563 25 l 563 194 q 472 113 526 143 q 343 83 418 83 q 213 110 272 83 q 110 183 153 138 q 44 291 68 229 q 21 422 21 353 q 44 556 21 493 q 110 664 68 618 q 213 737 153 710 q 343 764 272 764 q 472 734 418 764 q 563 653 526 704 l 563 750 l 715 750 l 715 129 z "},"h":{"ha":693,"x_min":42,"x_max":651,"o":"m 194 972 l 194 647 q 287 732 231 700 q 414 764 343 764 q 515 742 471 764 q 590 684 560 721 q 636 597 621 647 q 651 490 651 547 l 651 0 l 499 0 l 499 450 q 458 576 499 535 q 357 618 418 618 q 292 606 322 618 q 240 570 263 593 q 206 517 218 547 q 194 451 194 488 l 194 0 l 42 0 l 42 972 l 194 972 z "},"i":{"ha":229,"x_min":39,"x_max":192,"o":"m 39 750 l 192 750 l 192 0 l 39 0 l 39 750 m 39 972 l 192 972 l 192 836 l 39 836 l 39 972 z "},"j":{"ha":236,"x_min":-28,"x_max":194,"o":"m 42 972 l 194 972 l 194 836 l 42 836 l 42 972 m 194 -57 q 19 -224 194 -224 l -28 -83 q 26 -69 10 -83 q 42 -22 42 -56 l 42 750 l 194 750 l 194 -57 z "},"k":{"ha":639,"x_min":42,"x_max":629,"o":"m 451 0 l 194 406 l 194 0 l 42 0 l 42 972 l 194 972 l 194 439 l 442 750 l 619 750 l 347 421 l 629 0 l 451 0 z "},"l":{"ha":236,"x_min":42,"x_max":194,"o":"m 42 972 l 194 972 l 194 0 l 42 0 l 42 972 z "},"m":{"ha":1053,"x_min":42,"x_max":1011,"o":"m 1011 -3 l 858 -3 l 858 464 q 824 577 858 539 q 738 615 790 615 q 683 603 708 615 q 639 571 657 592 q 610 522 621 550 q 600 460 600 493 l 600 0 l 447 0 l 447 467 q 416 580 447 542 q 332 618 385 618 q 233 574 271 618 q 194 463 194 529 l 194 0 l 42 0 l 42 750 l 194 750 l 194 649 q 276 733 226 701 q 393 764 326 764 q 512 726 464 764 q 583 626 560 689 q 669 724 614 686 q 796 761 724 761 q 888 741 847 761 q 955 686 928 721 q 997 605 982 651 q 1011 506 1011 558 l 1011 -3 z "},"n":{"ha":693,"x_min":42,"x_max":651,"o":"m 194 750 l 194 647 q 287 732 231 700 q 414 764 343 764 q 515 742 471 764 q 590 684 560 721 q 636 598 621 647 q 651 492 651 549 l 651 0 l 499 0 l 499 450 q 458 577 499 536 q 357 618 418 618 q 292 606 322 618 q 240 570 263 593 q 206 517 218 547 q 194 451 194 488 l 194 0 l 42 0 l 42 750 l 194 750 z "},"o":{"ha":819,"x_min":21,"x_max":799,"o":"m 21 376 q 51 527 21 457 q 135 650 82 597 q 260 733 189 703 q 411 764 331 764 q 561 733 490 764 q 685 650 632 703 q 768 527 738 597 q 799 376 799 457 q 768 224 799 296 q 685 100 738 153 q 561 17 632 47 q 411 -14 490 -14 q 260 17 331 -14 q 135 100 189 47 q 51 224 82 153 q 21 376 21 296 m 171 378 q 190 280 171 325 q 240 202 208 235 q 317 151 272 169 q 411 132 361 132 q 504 151 461 132 q 580 202 547 169 q 631 280 613 235 q 650 378 650 325 q 631 472 650 428 q 580 549 613 517 q 504 599 547 581 q 411 618 461 618 q 317 599 361 618 q 240 549 272 581 q 190 472 208 517 q 171 378 171 428 z "},"p":{"ha":825,"x_min":49,"x_max":804,"o":"m 656 372 q 638 469 656 424 q 590 547 621 514 q 517 599 558 581 q 428 618 476 618 q 339 599 381 618 q 267 547 297 581 q 219 469 236 514 q 201 372 201 424 q 219 280 201 324 q 267 203 236 236 q 339 152 297 171 q 428 133 381 133 q 517 152 476 133 q 590 203 558 171 q 638 280 621 236 q 656 372 656 324 m 201 750 l 201 628 q 307 727 243 690 q 454 764 371 764 q 593 733 529 764 q 704 649 657 703 q 778 525 751 596 q 804 374 804 454 q 778 224 804 294 q 704 100 751 153 q 594 17 657 47 q 456 -14 531 -14 q 308 24 372 -14 q 201 125 243 61 l 201 -222 l 49 -222 l 49 750 l 201 750 z "},"q":{"ha":825,"x_min":21,"x_max":776,"o":"m 171 372 q 188 280 171 324 q 236 203 206 236 q 308 152 267 171 q 397 133 350 133 q 486 152 444 133 q 558 203 528 171 q 606 280 589 236 q 624 372 624 324 q 606 469 624 424 q 558 547 589 514 q 486 599 528 581 q 397 618 444 618 q 308 599 350 618 q 236 547 267 581 q 188 469 206 514 q 171 372 171 424 m 624 750 l 776 750 l 776 -222 l 624 -222 l 624 125 q 517 24 582 61 q 369 -14 453 -14 q 231 17 294 -14 q 121 100 168 47 q 47 224 74 153 q 21 374 21 294 q 47 525 21 454 q 121 649 74 596 q 233 733 168 703 q 372 764 297 764 q 519 727 456 764 q 624 628 582 690 l 624 750 z "},"r":{"ha":417,"x_min":49,"x_max":403,"o":"m 201 750 l 201 654 q 292 737 238 710 q 403 764 346 764 l 403 618 q 324 608 361 618 q 260 572 288 597 q 217 506 233 547 q 201 401 201 464 l 201 0 l 49 0 l 49 750 l 201 750 z "},"s":{"ha":525,"x_min":28,"x_max":501,"o":"m 454 711 l 454 586 q 411 610 435 599 q 364 625 392 618 q 304 632 336 632 q 215 609 250 632 q 181 550 181 586 q 204 500 181 521 q 264 461 228 479 q 341 424 300 443 q 418 378 382 406 q 478 311 454 350 q 501 214 501 272 q 483 124 501 165 q 429 52 464 82 q 345 5 394 22 q 233 -12 296 -12 q 147 -3 185 -12 q 85 18 110 7 q 35 49 56 32 l 35 179 q 88 146 58 161 q 146 123 113 133 q 218 113 179 113 q 265 118 242 113 q 307 136 288 124 q 338 167 326 149 q 350 213 350 186 q 326 274 350 250 q 267 318 303 299 q 189 356 231 338 q 111 400 147 375 q 51 460 75 425 q 28 549 28 496 q 47 632 28 593 q 99 699 65 671 q 178 744 132 728 q 282 761 225 761 q 356 753 324 761 q 410 736 388 746 q 454 711 435 725 z "},"t":{"ha":363,"x_min":21,"x_max":342,"o":"m 335 619 l 235 619 l 235 235 q 239 188 235 206 q 254 159 243 169 q 287 144 265 149 q 342 140 308 140 l 342 0 l 258 0 q 124 44 167 0 q 82 176 82 89 l 82 619 l 21 619 l 21 751 l 82 751 l 82 883 l 235 932 l 235 751 l 335 751 l 335 619 z "},"u":{"ha":693,"x_min":42,"x_max":651,"o":"m 499 0 l 499 103 q 407 18 463 50 q 281 -14 351 -14 q 179 8 224 -14 q 104 66 135 29 q 58 153 74 103 q 42 260 42 203 l 42 750 l 194 750 l 194 300 q 236 172 194 213 q 338 132 278 132 q 402 144 372 132 q 453 180 432 157 q 487 233 475 203 q 499 299 499 264 l 499 750 l 651 750 l 651 0 l 499 0 z "},"v":{"ha":710,"x_min":0,"x_max":710,"o":"m 450 0 l 260 0 l 0 750 l 158 750 l 354 183 l 551 750 l 710 750 l 450 0 z "},"w":{"ha":1021,"x_min":14,"x_max":1007,"o":"m 646 0 l 508 506 l 371 0 l 218 0 l 14 750 l 174 750 l 301 239 l 440 750 l 576 750 l 718 232 l 847 750 l 1007 750 l 803 0 l 646 0 z "},"x":{"ha":664,"x_min":14,"x_max":647,"o":"m 186 0 l 14 0 l 242 381 l 14 750 l 186 750 l 319 515 l 451 750 l 625 750 l 400 382 l 647 0 l 475 0 l 324 249 l 186 0 z "},"y":{"ha":732,"x_min":7,"x_max":725,"o":"m 358 -222 l 204 -222 l 303 40 l 7 750 l 165 750 l 381 246 l 571 750 l 725 750 l 358 -222 z "},"z":{"ha":581,"x_min":7,"x_max":592,"o":"m 571 0 l 7 0 l 336 604 l 36 604 l 36 750 l 592 750 l 261 146 l 571 146 l 571 0 z "},"{":{"ha":272,"x_min":28,"x_max":244,"o":"m 83 394 q 70 455 83 428 q 28 501 57 482 q 68 544 53 521 q 83 592 83 567 l 83 911 q 144 972 83 972 l 244 972 l 244 917 l 175 917 q 139 881 139 917 l 139 592 q 128 543 139 567 q 94 501 117 519 q 128 455 117 486 q 139 394 139 424 l 139 92 q 175 56 139 56 l 244 56 l 244 0 l 144 0 q 83 61 83 0 l 83 394 z "},"|":{"ha":167,"x_min":56,"x_max":111,"o":"m 56 972 l 111 972 l 111 0 l 56 0 l 56 972 z "},"}":{"ha":272,"x_min":28,"x_max":244,"o":"m 189 61 q 128 0 189 0 l 28 0 l 28 56 l 97 56 q 133 92 133 56 l 133 394 q 144 455 133 424 q 178 501 156 486 q 144 543 156 519 q 133 592 133 567 l 133 881 q 97 917 133 917 l 28 917 l 28 972 l 128 972 q 189 911 189 972 l 189 592 q 204 544 189 567 q 244 501 219 521 q 202 455 215 482 q 189 394 189 428 l 189 61 z "},"˜":{"ha":556,"x_min":28,"x_max":528,"o":"m 28 514 q 94 547 64 538 q 153 557 125 557 q 219 544 189 557 q 278 517 249 532 q 340 489 308 501 q 408 476 371 476 q 464 485 435 476 q 528 514 493 494 l 528 458 q 459 430 490 439 q 401 421 428 421 q 333 433 364 421 q 272 461 301 446 q 214 489 243 476 q 150 501 185 501 q 94 492 124 501 q 28 458 64 482 l 28 514 z "},"‘":{"ha":215,"x_min":28,"x_max":188,"o":"m 188 585 l 28 585 l 28 883 l 188 972 l 188 585 z "},"’":{"ha":215,"x_min":28,"x_max":188,"o":"m 28 972 l 188 972 l 188 674 l 28 585 l 28 972 z "},"“":{"ha":431,"x_min":28,"x_max":403,"o":"m 188 585 l 28 585 l 28 890 l 188 972 l 188 585 m 403 585 l 243 585 l 243 890 l 403 972 l 403 585 z "},"”":{"ha":431,"x_min":28,"x_max":403,"o":"m 243 972 l 403 972 l 403 667 l 243 585 l 243 972 m 28 972 l 188 972 l 188 667 l 28 585 l 28 972 z "},"€":{"ha":749,"x_min":28,"x_max":735,"o":"m 28 521 l 28 576 l 86 576 q 143 739 101 664 q 249 869 185 814 q 398 955 314 924 q 579 986 482 986 q 642 983 614 986 q 692 975 671 979 q 735 964 715 969 l 735 801 q 697 818 719 810 q 653 828 679 824 q 590 833 626 833 q 469 814 524 833 q 372 760 414 794 q 303 679 331 726 q 263 576 275 632 l 664 576 l 664 521 l 254 521 q 253 506 253 514 q 253 490 253 497 q 253 472 253 481 q 254 453 253 463 l 664 453 l 664 397 l 264 397 q 305 297 276 343 q 375 218 333 251 q 471 166 417 185 q 589 147 525 147 q 651 152 625 147 q 697 164 678 157 q 735 181 719 171 l 735 19 q 690 7 715 13 q 640 -1 669 3 q 575 -6 611 -6 q 398 25 481 -6 q 252 110 315 56 q 146 238 189 164 q 88 397 103 311 l 28 397 l 28 453 l 81 453 q 79 472 79 463 q 79 490 79 481 q 79 506 79 497 q 81 521 79 514 l 28 521 z "},"":{"ha":697,"x_min":28,"x_max":676,"o":"m 28 490 q 67 683 28 593 q 172 841 106 774 q 328 947 239 908 q 517 986 417 986 q 582 982 553 986 q 632 972 611 978 q 676 957 657 965 l 676 797 q 639 815 660 807 q 593 828 619 822 q 532 833 567 833 q 399 806 461 833 q 292 733 338 779 q 220 624 246 686 q 194 490 194 561 q 220 357 194 419 q 291 248 246 294 q 398 174 336 201 q 531 147 460 147 q 593 153 567 147 q 639 165 619 158 q 676 183 660 174 l 676 25 q 632 10 657 17 q 581 -1 611 4 q 514 -6 551 -6 q 327 33 415 -6 q 172 140 239 72 q 67 297 106 207 q 28 490 28 388 z "},"":{"ha":607,"x_min":56,"x_max":579,"o":"m 56 0 l 56 972 l 579 972 l 579 825 l 215 825 l 215 565 l 538 565 l 538 418 l 215 418 l 215 147 l 579 147 l 579 0 l 56 0 z "},"":{"ha":607,"x_min":56,"x_max":579,"o":"m 215 418 l 215 0 l 56 0 l 56 972 l 579 972 l 579 825 l 215 825 l 215 565 l 538 565 l 538 418 l 215 418 z "},"":{"ha":892,"x_min":28,"x_max":864,"o":"m 28 490 q 67 683 28 593 q 174 841 106 774 q 335 947 243 908 q 536 986 428 986 q 674 968 614 986 q 778 929 735 950 q 864 871 826 903 l 753 747 q 693 793 726 772 q 620 824 663 810 q 524 838 578 838 q 390 810 451 838 q 282 735 328 782 q 210 624 236 688 q 185 492 185 561 q 210 358 185 421 q 283 247 236 294 q 396 172 331 200 q 540 144 461 144 q 624 151 583 144 q 700 169 665 158 l 700 404 l 433 404 l 472 551 l 860 551 l 860 75 q 769 35 818 53 q 669 7 726 19 q 546 -6 613 -6 q 341 33 436 -6 q 176 140 246 72 q 67 297 107 207 q 28 490 28 388 z "},"":{"ha":621,"x_min":56,"x_max":600,"o":"m 56 0 l 56 972 l 215 972 l 215 147 l 600 147 l 600 0 l 56 0 z "},"":{"ha":921,"x_min":56,"x_max":865,"o":"m 457 282 l 215 650 l 217 0 l 56 0 l 56 972 l 181 972 l 457 571 l 740 972 l 865 972 l 865 0 l 706 0 l 706 656 l 457 282 z "},"":{"ha":843,"x_min":56,"x_max":767,"o":"m 767 972 l 767 0 l 607 0 l 215 668 l 215 0 l 56 0 l 56 972 l 215 972 l 607 303 l 607 972 l 767 972 z "},"":{"ha":638,"x_min":28,"x_max":610,"o":"m 28 825 l 28 972 l 610 972 l 610 825 l 399 825 l 399 -1 l 239 -1 l 239 825 l 28 825 z "},"":{"ha":782,"x_min":14,"x_max":768,"o":"m 313 0 l 313 407 l 14 972 l 182 972 l 392 560 l 601 972 l 768 972 l 472 407 l 472 0 l 313 0 z "},"":{"ha":707,"x_min":0,"x_max":707,"o":"m 0 0 l 449 825 l 69 825 l 69 972 l 707 972 l 251 147 l 646 147 l 646 0 l 0 0 z "},"":{"ha":818,"x_min":42,"x_max":797,"o":"m 649 378 q 631 472 649 428 q 583 548 614 515 q 510 599 551 581 q 421 618 469 618 q 332 599 374 618 q 260 548 290 581 q 212 472 229 515 q 194 378 194 428 q 212 281 194 326 q 260 203 229 236 q 332 151 290 169 q 421 132 374 132 q 510 151 469 132 q 583 203 551 169 q 631 281 614 236 q 649 378 649 326 m 194 0 l 42 0 l 42 972 l 194 972 l 194 625 q 301 726 236 689 q 449 764 365 764 q 587 733 524 764 q 697 650 650 703 q 771 526 744 597 q 797 376 797 456 q 771 225 797 296 q 697 101 744 154 q 586 17 650 47 q 447 -14 522 -14 q 300 23 364 -14 q 194 122 236 60 l 194 0 z "},"":{"ha":750,"x_min":21,"x_max":736,"o":"m 592 435 q 581 497 592 464 q 545 559 569 531 q 483 607 521 588 q 393 626 446 626 q 245 574 307 626 q 168 435 183 522 l 592 435 m 21 372 q 49 524 21 453 q 128 649 78 596 q 247 734 178 703 q 399 765 317 765 q 535 740 472 765 q 642 667 597 714 q 711 557 686 621 q 736 418 736 493 l 736 339 l 168 339 q 202 248 176 288 q 263 182 228 208 q 342 142 299 156 q 428 128 385 128 q 513 143 475 129 q 579 172 551 157 q 636 217 611 192 l 722 121 q 639 53 686 83 q 543 6 599 28 q 418 -15 488 -15 q 272 14 343 -15 q 145 94 201 43 q 55 217 89 146 q 21 372 21 288 z "},"":{"ha":697,"x_min":28,"x_max":676,"o":"m 28 490 q 67 683 28 593 q 172 841 106 774 q 328 947 239 908 q 517 986 417 986 q 582 982 553 986 q 632 972 611 978 q 676 957 657 965 l 676 797 q 639 815 660 807 q 593 828 619 822 q 532 833 567 833 q 414 813 469 833 q 315 754 358 792 q 241 666 271 717 q 200 557 211 615 l 635 557 l 635 410 l 204 410 q 247 306 217 354 q 319 222 276 257 q 417 167 363 188 q 532 147 471 147 q 593 153 567 147 q 639 165 619 158 q 676 183 660 174 l 676 25 q 632 10 657 17 q 581 -1 611 4 q 515 -6 551 -6 q 327 33 415 -6 q 172 140 239 72 q 67 297 106 207 q 28 490 28 388 z "},"":{"ha":363,"x_min":-25,"x_max":342,"o":"m 333 619 l 228 619 l 228 -72 q 185 -185 228 -149 q 75 -222 142 -222 q 33 -219 51 -222 q 3 -211 15 -215 q -25 -199 -14 -206 l -25 -94 q -15 -101 -21 -99 q 17 -108 -4 -108 q 63 -87 51 -108 q 75 -39 75 -67 l 75 619 l 21 619 l 21 751 l 75 751 l 75 813 q 122 933 75 894 q 242 972 168 972 q 284 969 265 972 q 315 963 303 965 q 342 951 331 957 l 342 847 q 331 853 338 850 q 315 857 324 856 q 294 858 307 858 q 242 837 256 858 q 228 788 228 815 l 228 751 l 333 751 l 333 619 z "},"":{"ha":635,"x_min":42,"x_max":747,"o":"m 569 -222 l 194 404 l 194 0 l 42 0 l 42 972 l 194 972 l 194 439 l 442 750 l 619 750 l 347 421 l 747 -222 l 569 -222 z "},"":{"ha":636,"x_min":32,"x_max":608,"o":"m 457 711 l 457 586 q 415 610 439 599 q 370 625 396 618 q 313 632 344 632 q 219 606 254 632 q 183 536 183 579 q 215 469 183 496 q 293 417 246 442 q 396 368 340 393 q 499 306 451 343 q 577 215 546 268 q 608 81 608 161 q 585 -40 608 15 q 520 -136 563 -96 q 417 -199 478 -176 q 278 -222 356 -222 q 174 -211 218 -222 q 99 -185 129 -200 q 39 -147 64 -168 l 39 -18 q 99 -57 65 -39 q 166 -83 126 -71 q 254 -94 206 -94 q 331 -85 294 -94 q 396 -56 368 -76 q 441 -6 424 -36 q 458 68 458 25 q 427 167 458 128 q 348 238 396 207 q 245 294 300 268 q 142 351 190 319 q 63 424 94 382 q 32 526 32 465 q 50 615 32 572 q 102 690 68 657 q 184 742 136 722 q 292 761 232 761 q 362 753 332 761 q 414 736 392 746 q 457 711 439 725 z "},"":{"ha":818,"x_min":21,"x_max":776,"o":"m 171 378 q 188 281 171 326 q 236 203 206 236 q 308 151 267 169 q 397 132 350 132 q 486 151 444 132 q 558 203 528 169 q 606 281 589 236 q 624 378 624 326 q 606 472 624 428 q 558 548 589 515 q 486 599 528 581 q 397 618 444 618 q 308 599 350 618 q 236 548 267 581 q 188 472 206 515 q 171 378 171 428 m 624 0 l 624 122 q 519 23 582 60 q 372 -14 456 -14 q 233 17 297 -14 q 121 101 168 47 q 47 225 74 154 q 21 376 21 296 q 47 526 21 456 q 121 650 74 597 q 231 733 168 703 q 369 764 294 764 q 517 726 453 764 q 624 625 582 689 l 624 750 l 776 750 l 776 0 l 624 0 z "},"":{"ha":368,"x_min":21,"x_max":347,"o":"m 347 619 l 249 619 l 249 0 l 96 0 l 96 619 l 21 619 l 21 751 l 96 751 l 96 885 l 249 932 l 249 751 l 347 751 l 347 619 z "},"":{"ha":588,"x_min":7,"x_max":931,"o":"m 931 -222 q 728 -202 811 -219 q 581 -160 644 -185 q 465 -107 518 -135 q 356 -56 413 -79 q 228 -16 299 -32 q 58 0 158 0 l 7 0 l 340 604 l 36 604 l 36 750 l 594 750 l 251 132 q 361 99 311 119 q 458 54 411 78 q 554 6 506 31 q 658 -38 603 -18 q 781 -71 714 -58 q 931 -83 847 -83 l 931 -222 z "},"":{"ha":463,"x_min":56,"x_max":442,"o":"m 56 0 l 56 972 l 215 972 l 215 147 l 442 147 l 442 0 l 56 0 z "},"":{"ha":792,"x_min":56,"x_max":736,"o":"m 217 399 l 576 399 l 576 628 q 531 772 576 721 q 397 822 485 822 q 357 817 372 822 q 253 758 289 807 q 217 628 217 710 l 217 399 m 57 651 q 82 784 57 724 q 151 888 107 844 q 259 954 196 931 q 397 978 322 978 q 526 957 467 978 q 628 899 585 936 q 699 808 672 861 q 733 690 726 756 q 735 651 735 671 q 736 613 736 632 l 736 0 l 576 0 l 576 251 l 217 251 l 217 0 l 56 0 l 57 651 z "},"":{"ha":1154,"x_min":56,"x_max":1099,"o":"m 1099 0 l 938 0 l 938 665 q 902 781 938 740 q 800 822 867 822 q 699 781 733 822 q 664 665 664 740 l 664 0 l 493 0 l 493 665 q 458 781 493 740 q 356 822 422 822 q 253 781 289 822 q 217 665 217 740 l 217 0 l 56 0 l 57 686 q 77 805 57 751 q 133 897 97 858 q 220 957 169 936 q 331 978 271 978 q 481 937 417 978 q 576 824 544 896 q 672 937 608 896 q 822 978 736 978 q 933 957 883 978 q 1020 897 983 936 q 1077 805 1057 858 q 1097 686 1097 751 l 1099 0 z "},"":{"ha":792,"x_min":56,"x_max":736,"o":"m 57 651 q 82 784 57 724 q 151 888 107 844 q 259 954 196 931 q 397 978 322 978 q 535 954 472 978 q 642 888 597 931 q 712 784 688 844 q 736 651 736 724 l 736 0 l 576 0 l 576 628 q 531 772 576 721 q 397 822 485 822 q 263 772 310 822 q 217 628 217 721 l 217 0 l 56 0 l 57 651 z "},"":{"ha":1154,"x_min":56,"x_max":1099,"o":"m 1097 283 q 1077 164 1097 218 q 1020 72 1057 110 q 933 12 983 33 q 822 -10 883 -10 q 672 31 736 -10 q 576 144 608 72 q 481 31 544 72 q 331 -10 417 -10 q 220 12 271 -10 q 133 72 169 33 q 77 164 97 110 q 57 283 57 218 l 56 968 l 217 968 l 217 303 q 253 188 217 228 q 356 147 289 147 q 458 188 422 147 q 493 303 493 228 l 493 968 l 664 968 l 664 303 q 699 188 664 228 q 800 147 733 147 q 902 188 867 147 q 938 303 938 228 l 938 968 l 1099 968 l 1097 283 z "},"":{"ha":826,"x_min":21,"x_max":785,"o":"m 632 372 q 614 470 632 425 q 565 548 596 515 q 492 599 533 581 q 401 618 450 618 q 311 599 353 618 q 238 548 269 581 q 189 470 207 515 q 171 372 171 425 q 189 278 171 322 q 238 203 207 235 q 311 152 269 171 q 401 133 353 133 q 492 152 450 133 q 565 203 533 171 q 614 278 596 235 q 632 372 632 322 m 632 107 q 522 19 588 51 q 376 -14 456 -14 q 235 17 300 -14 q 123 100 171 47 q 48 223 75 153 q 21 374 21 293 q 51 526 21 456 q 133 650 81 597 q 254 733 185 703 q 403 764 324 764 q 551 734 482 764 q 673 652 621 704 q 755 528 725 600 q 785 374 785 457 l 785 -11 l 632 -11 l 632 107 z "},"":{"ha":826,"x_min":21,"x_max":785,"o":"m 632 378 q 614 472 632 428 q 565 549 596 517 q 492 599 533 581 q 401 618 450 618 q 311 599 353 618 q 238 549 269 581 q 189 472 207 517 q 171 378 171 428 q 189 280 171 325 q 238 202 207 235 q 311 151 269 169 q 401 132 353 132 q 492 151 450 132 q 565 202 533 169 q 614 280 596 235 q 632 378 632 325 m 785 376 q 755 222 785 293 q 673 98 725 150 q 551 16 621 46 q 403 -14 482 -14 q 254 17 324 -14 q 133 100 185 47 q 51 224 81 153 q 21 376 21 296 q 48 527 21 457 q 123 650 75 597 q 235 733 171 703 q 376 764 300 764 q 522 731 456 764 q 632 643 588 699 l 632 972 l 785 972 l 785 376 z "},"":{"ha":764,"x_min":21,"x_max":722,"o":"m 569 418 q 554 497 569 461 q 513 560 539 533 q 450 603 486 588 q 372 618 414 618 q 294 603 331 618 q 232 560 258 588 q 190 497 206 533 q 175 418 175 461 q 190 342 175 378 q 232 279 206 306 q 294 238 258 253 q 372 222 331 222 q 450 238 414 222 q 513 279 486 253 q 554 342 539 306 q 569 418 569 378 m 722 129 q 699 -16 722 51 q 628 -132 676 -83 q 509 -208 581 -181 q 339 -236 438 -236 q 227 -226 274 -236 q 150 -203 181 -215 q 90 -168 114 -187 l 90 -25 q 160 -64 121 -46 q 237 -90 192 -78 q 336 -101 282 -101 q 505 -43 440 -101 q 569 138 569 15 l 569 183 q 474 112 532 140 q 342 83 415 83 q 213 110 272 83 q 112 183 154 138 q 45 291 69 229 q 21 422 21 353 q 48 556 21 493 q 122 664 75 618 q 233 737 169 710 q 371 764 297 764 q 511 735 447 764 q 622 656 575 706 q 696 542 669 607 q 722 403 722 476 l 722 129 z "},"":{"ha":1083,"x_min":49,"x_max":1035,"o":"m 1035 0 l 881 0 l 881 460 q 847 569 881 531 q 750 607 813 607 q 653 569 688 607 q 618 460 618 531 l 618 0 l 458 0 l 458 460 q 425 569 458 531 q 331 607 392 607 q 237 569 271 607 q 203 460 203 531 l 203 0 l 49 0 l 50 474 q 69 588 50 536 q 122 677 88 640 q 203 735 156 714 q 307 756 250 756 q 448 715 388 756 q 539 601 508 674 q 629 715 568 674 q 774 756 690 756 q 879 735 832 756 q 961 677 926 714 q 1015 588 996 640 q 1033 474 1033 536 l 1035 0 z "},"":{"ha":757,"x_min":56,"x_max":701,"o":"m 57 442 q 81 568 57 511 q 147 666 104 625 q 249 730 189 707 q 379 753 308 753 q 510 730 450 753 q 612 666 569 707 q 678 568 654 625 q 701 442 701 511 l 701 -3 l 549 -3 l 549 414 q 504 555 549 506 q 379 604 460 604 q 254 555 299 604 q 210 414 210 506 l 210 -3 l 56 -3 l 57 442 z "},"":{"ha":826,"x_min":42,"x_max":806,"o":"m 194 372 q 213 278 194 322 q 262 203 231 235 q 335 152 293 171 q 426 133 378 133 q 517 152 475 133 q 590 203 558 171 q 639 278 621 235 q 657 372 657 322 q 639 470 657 425 q 590 548 621 515 q 517 599 558 581 q 426 618 475 618 q 335 599 378 618 q 262 548 293 581 q 213 470 231 515 q 194 372 194 425 m 42 374 q 72 528 42 457 q 155 652 103 600 q 276 734 207 704 q 425 764 346 764 q 573 733 504 764 q 694 650 642 703 q 776 526 746 597 q 806 374 806 456 q 778 223 806 293 q 704 100 751 153 q 592 17 657 47 q 451 -14 528 -14 q 305 19 371 -14 q 194 107 239 51 l 194 -222 l 42 -222 l 42 374 z "},"":{"ha":826,"x_min":21,"x_max":785,"o":"m 632 372 q 614 470 632 425 q 565 548 596 515 q 492 599 533 581 q 401 618 450 618 q 311 599 353 618 q 238 548 269 581 q 189 470 207 515 q 171 372 171 425 q 189 278 171 322 q 238 203 207 235 q 311 152 269 171 q 401 133 353 133 q 492 152 450 133 q 565 203 533 171 q 614 278 596 235 q 632 372 632 322 m 632 107 q 522 19 588 51 q 376 -14 456 -14 q 235 17 300 -14 q 123 100 171 47 q 48 223 75 153 q 21 374 21 293 q 51 526 21 456 q 133 650 81 597 q 254 733 185 703 q 403 764 324 764 q 551 734 482 764 q 673 652 621 704 q 755 528 725 600 q 785 374 785 457 l 785 -222 l 632 -222 l 632 107 z "},"":{"ha":757,"x_min":56,"x_max":701,"o":"m 56 750 l 210 750 l 210 335 q 254 194 210 243 q 379 144 299 144 q 504 194 460 144 q 549 335 549 243 l 549 750 l 701 750 l 701 307 q 678 180 701 238 q 612 81 654 122 q 510 17 569 40 q 379 -6 450 -6 q 249 17 308 -6 q 147 81 189 40 q 81 180 104 122 q 57 307 57 238 l 56 750 z "},"":{"ha":1083,"x_min":49,"x_max":1035,"o":"m 1033 276 q 1015 162 1033 214 q 961 73 996 110 q 879 15 926 36 q 774 -6 832 -6 q 629 35 690 -6 q 539 149 568 76 q 448 35 508 76 q 307 -6 388 -6 q 203 15 250 -6 q 122 73 156 36 q 69 162 88 110 q 50 276 50 214 l 49 750 l 203 750 l 203 292 q 237 183 203 221 q 331 144 271 144 q 425 183 392 144 q 458 292 458 221 l 458 750 l 618 750 l 618 292 q 653 183 618 221 q 750 144 688 144 q 847 183 813 144 q 881 292 881 221 l 881 750 l 1035 750 l 1033 276 z "},"":{"ha":701,"x_min":42,"x_max":653,"o":"m 42 750 l 194 750 l 194 392 q 239 269 194 310 q 347 229 283 229 q 397 237 371 229 q 447 263 424 244 q 485 314 469 282 q 500 396 500 346 l 500 751 l 653 751 l 653 97 q 631 -35 653 26 q 565 -141 610 -96 q 453 -211 521 -186 q 296 -236 386 -236 q 188 -226 233 -236 q 114 -203 143 -215 q 56 -168 79 -187 l 56 -25 q 115 -64 81 -46 q 188 -90 144 -78 q 288 -101 231 -101 q 445 -51 390 -101 q 500 106 500 -1 l 500 193 q 409 113 464 142 q 285 83 354 83 q 181 103 226 83 q 104 159 135 124 q 58 243 74 194 q 42 347 42 292 l 42 750 z "},"":{"ha":729,"x_min":56,"x_max":674,"o":"m 514 449 l 514 817 q 392 774 446 807 q 299 693 338 742 q 238 581 260 644 q 215 449 217 518 l 514 449 m 56 0 l 56 463 q 98 665 56 572 q 215 826 140 758 q 393 933 290 894 q 617 972 496 972 l 674 972 l 674 0 l 514 0 l 514 301 l 215 301 l 215 0 l 56 0 z "},"":{"ha":940,"x_min":56,"x_max":885,"o":"m 471 386 q 413 581 456 506 q 326 700 371 657 q 215 775 275 751 l 215 0 l 56 0 l 56 972 l 107 972 q 253 944 192 972 q 359 877 315 917 q 430 796 403 838 q 471 726 457 754 q 512 796 485 754 q 583 877 539 838 q 688 944 626 917 q 835 972 750 972 l 885 972 l 885 0 l 725 0 l 725 775 q 617 701 667 751 q 531 583 572 658 q 471 386 490 508 z "},"":{"ha":742,"x_min":56,"x_max":674,"o":"m 674 0 l 514 0 l 514 463 q 489 599 514 539 q 422 700 464 658 q 326 766 381 742 q 215 796 272 790 l 215 0 l 56 0 l 56 972 l 157 972 q 358 923 267 972 q 514 796 450 874 l 514 972 l 674 972 l 674 0 z "},"":{"ha":729,"x_min":56,"x_max":674,"o":"m 674 972 l 674 510 q 631 307 674 400 q 514 146 589 214 q 336 39 439 78 q 114 0 233 0 l 56 0 l 56 972 l 215 972 l 215 156 q 340 199 285 165 q 433 283 394 232 q 493 397 472 333 q 514 533 514 461 l 514 972 l 674 972 z "},"":{"ha":951,"x_min":56,"x_max":885,"o":"m 471 247 q 430 178 457 219 q 359 97 403 136 q 253 28 315 57 q 107 0 192 0 l 56 0 l 56 972 l 215 972 l 215 197 q 326 272 275 221 q 413 391 371 315 q 471 586 456 467 q 531 389 490 464 q 617 271 572 314 q 725 197 667 221 l 725 972 l 885 972 l 885 0 l 835 0 q 688 28 750 0 q 583 97 626 57 q 512 178 539 136 q 471 247 485 219 z "}}}
